<?xml version="1.0" encoding="utf-8"?>
<!-- Generator: Adobe Illustrator 14.0.0, SVG Export Plug-In . SVG Version: 6.00 Build 43363)  -->
<!DOCTYPE svg PUBLIC "-//W3C//DTD SVG 1.1//EN" "http://www.w3.org/Graphics/SVG/1.1/DTD/svg11.dtd">
<svg version="1.1" id="katman_1" xmlns="http://www.w3.org/2000/svg" xmlns:xlink="http://www.w3.org/1999/xlink" x="0px" y="0px"
	 width="342px" height="322px" viewBox="0 0 342 322" enable-background="new 0 0 342 322" xml:space="preserve">
<linearGradient id="SVGID_1_" gradientUnits="userSpaceOnUse" x1="162.9897" y1="306.0566" x2="162.9897" y2="4.882813e-004">
	<stop  offset="0" style="stop-color:#B2921C"/>
	<stop  offset="1" style="stop-color:#FED642"/>
</linearGradient>
<rect x="0.836" fill="url(#SVGID_1_)" width="324.307" height="306.057"/>
<linearGradient id="SVGID_2_" gradientUnits="userSpaceOnUse" x1="179.0625" y1="321.9961" x2="179.0625" y2="15.9404">
	<stop  offset="0" style="stop-color:#A64F19"/>
	<stop  offset="1" style="stop-color:#E5832B"/>
</linearGradient>
<rect x="16.909" y="15.94" fill="url(#SVGID_2_)" width="324.308" height="306.056"/>
<linearGradient id="SVGID_3_" gradientUnits="userSpaceOnUse" x1="8.8706" y1="322.0264" x2="8.8706" y2="4.882813e-004">
	<stop  offset="0" style="stop-color:#824212"/>
	<stop  offset="1" style="stop-color:#CC6633"/>
</linearGradient>
<polygon fill="url(#SVGID_3_)" points="0.836,306.131 16.905,322.026 16.905,15.895 0.836,0 "/>
<path fill="#B46720" d="M172.044,87.733c-0.069-0.051-0.157-0.087-0.272-0.104c-0.273-0.04-0.548,0.008-0.821,0.008
	c-1.041,0-2.083,0-3.123,0c-1.531,0-3.063,0-4.595,0c-1.857,0-3.713,0-5.57,0c-2.016,0-4.032,0-6.047,0c-2.009,0-4.017,0-6.025,0
	c-1.835,0-3.671,0-5.505,0c-1.497,0-2.993,0-4.489,0c-0.545,0-1.088,0-1.632,0c-0.514,0-1.21-0.102-1.694,0.054
	c-0.202,0.065-0.301,0.181-0.407,0.358c-0.284,0.474-0.208,1.106-0.208,1.623c0,0.432,0,0.863,0,1.294c0,1.034,0,2.067,0,3.101
	c0,2.099,0,4.197,0,6.296c0,0.912,0,1.823,0,2.733c0-0.017-0.004-0.041,0-0.056c-0.05,0.168-0.1,0.336-0.151,0.505
	c-0.146,0.489-0.291,0.979-0.437,1.469c-0.234,0.787-0.469,1.574-0.704,2.361c-0.315,1.062-0.632,2.124-0.949,3.186
	c-0.391,1.313-0.781,2.625-1.172,3.938c-0.459,1.541-0.918,3.082-1.376,4.622c-0.52,1.745-1.04,3.49-1.56,5.236
	c-0.574,1.926-1.147,3.853-1.721,5.779c-0.62,2.084-1.24,4.168-1.862,6.253c-0.661,2.218-1.321,4.437-1.982,6.656
	c-0.694,2.33-1.387,4.66-2.081,6.99c-0.72,2.418-1.44,4.836-2.161,7.253c-0.739,2.483-1.479,4.966-2.217,7.447
	c-0.752,2.524-1.503,5.048-2.255,7.572c-0.756,2.542-1.514,5.083-2.271,7.624c-0.755,2.538-1.511,5.073-2.267,7.609
	c-0.746,2.509-1.493,5.016-2.24,7.523c-0.731,2.455-1.462,4.91-2.193,7.366c-0.709,2.38-1.417,4.761-2.127,7.142
	c-0.679,2.281-1.358,4.563-2.039,6.845c-0.643,2.159-1.286,4.318-1.929,6.478c-0.6,2.016-1.199,4.029-1.8,6.043
	c-0.549,1.847-1.099,3.692-1.648,5.539c-0.492,1.652-0.985,3.307-1.477,4.961c-0.429,1.438-0.857,2.877-1.286,4.315
	c-0.357,1.2-0.715,2.4-1.072,3.601c-0.279,0.938-0.559,1.877-0.838,2.814c-0.133,0.446-0.296,0.886-0.314,1.357
	c-0.012,0.286-0.067,0.656,0.003,0.936c0.221,0.886,1.92,0.848,2.813,0.848c1.059,0,2.117,0,3.175,0c2.654,0,5.309,0,7.963,0
	c2.766,0,5.532,0,8.297,0c0.122,0,0.243,0,0.363,0c1.214,0,2.425,0,3.638,0c0.735,0,1.749,0.054,2.471-0.09
	c3.007-0.602,3.373-3.854,4.12-6.167c0.723-2.234,1.234-4.533,1.85-6.8c0.713-2.626,1.428-5.251,2.143-7.878
	c0.718-2.641,1.437-5.282,2.154-7.923c0.63-2.312,1.258-4.624,1.887-6.937c0.447-1.64,0.894-3.279,1.338-4.919
	c0.17-0.623,0.34-1.246,0.509-1.869h45.628c0.176,0.584,0.353,1.169,0.527,1.754c0.465,1.546,0.931,3.092,1.396,4.638
	c0.66,2.196,1.322,4.393,1.981,6.589c0.763,2.534,1.526,5.07,2.288,7.605c0.771,2.564,1.542,5.127,2.314,7.69
	c0.686,2.28,1.371,4.56,2.058,6.841c0.508,1.687,1.016,3.373,1.522,5.06c0.103,0.346,0.238,0.693,0.314,1.046
	c0.158,0.738,1.017,1.385,1.739,1.359c0.333-0.01,0.669,0,1.001,0c0.889,0,1.778,0,2.668,0c2.406,0,4.813,0,7.217,0
	c2.736,0,5.474,0,8.209,0c2.467,0,4.932,0,7.396,0c0.009,0,0.019,0,0.027,0c0.389,0,0.778,0,1.168,0
	c0.357,0,0.734,0.011,1.092,0.021c0.396,0.013,1.92-0.364,2.282-1.451c0.092-0.274,0.217-0.553,0.219-0.844
	c0.004-0.248,0.004-0.458-0.069-0.696c-0.086-0.289-0.174-0.578-0.263-0.867c-0.096-0.324-0.194-0.647-0.292-0.972
	c-0.108-0.356-0.216-0.714-0.323-1.07c-0.117-0.39-0.234-0.778-0.353-1.168c-0.127-0.42-0.255-0.841-0.381-1.262
	c-0.136-0.45-0.272-0.901-0.409-1.352c-0.145-0.482-0.29-0.963-0.436-1.443c-0.153-0.509-0.307-1.018-0.46-1.527
	c-0.163-0.536-0.325-1.072-0.486-1.609c-0.17-0.563-0.34-1.127-0.511-1.691c-0.179-0.589-0.354-1.177-0.533-1.767
	c-0.186-0.613-0.37-1.227-0.556-1.842c-0.192-0.637-0.387-1.275-0.578-1.914c-0.2-0.66-0.398-1.321-0.599-1.981
	c-0.207-0.683-0.412-1.365-0.619-2.048c-0.212-0.704-0.425-1.407-0.637-2.111c-0.219-0.724-0.438-1.448-0.656-2.172
	c-0.225-0.743-0.448-1.487-0.673-2.229c-0.229-0.762-0.46-1.522-0.69-2.284c-0.234-0.778-0.469-1.557-0.704-2.336
	c-0.241-0.795-0.48-1.59-0.721-2.385c-0.244-0.81-0.489-1.621-0.734-2.431c-0.249-0.826-0.498-1.651-0.747-2.477
	c-0.253-0.838-0.507-1.676-0.76-2.515c-0.257-0.851-0.514-1.702-0.771-2.554c-0.261-0.862-0.521-1.726-0.782-2.589
	c-0.263-0.873-0.526-1.746-0.791-2.62c-0.266-0.884-0.534-1.768-0.8-2.649c-0.269-0.894-0.539-1.785-0.809-2.679
	c-0.271-0.899-0.543-1.799-0.815-2.699c-0.273-0.907-0.547-1.813-0.821-2.721c-0.275-0.913-0.552-1.827-0.827-2.74
	c-0.276-0.919-0.554-1.837-0.832-2.755c-0.278-0.924-0.558-1.846-0.836-2.768c-0.279-0.926-0.559-1.852-0.838-2.777
	c-0.281-0.928-0.561-1.857-0.84-2.785c-0.281-0.929-0.562-1.858-0.843-2.788s-0.562-1.86-0.843-2.79
	c-0.28-0.929-0.561-1.858-0.842-2.787c-0.28-0.929-0.561-1.856-0.841-2.784c-0.279-0.926-0.559-1.851-0.837-2.777
	c-0.278-0.922-0.559-1.845-0.837-2.767c-0.275-0.917-0.555-1.835-0.83-2.753c-0.276-0.914-0.552-1.826-0.828-2.739
	c-0.274-0.907-0.548-1.813-0.82-2.721c-0.271-0.899-0.544-1.798-0.815-2.698c-0.27-0.892-0.538-1.784-0.808-2.675
	c-0.267-0.882-0.533-1.765-0.799-2.647c-0.265-0.874-0.527-1.746-0.791-2.619c-0.262-0.862-0.521-1.724-0.781-2.586
	c-0.256-0.85-0.513-1.7-0.77-2.551c-0.253-0.837-0.506-1.675-0.759-2.513c-0.249-0.824-0.497-1.648-0.747-2.472
	c-0.244-0.809-0.487-1.618-0.733-2.428c-0.239-0.794-0.478-1.587-0.718-2.381c-0.235-0.777-0.47-1.555-0.704-2.333
	c-0.229-0.76-0.459-1.52-0.689-2.279c-0.224-0.742-0.446-1.483-0.671-2.226c-0.219-0.723-0.437-1.444-0.653-2.167
	c-0.214-0.702-0.426-1.404-0.637-2.106c-0.207-0.681-0.412-1.362-0.617-2.043c-0.2-0.659-0.399-1.318-0.598-1.977
	c-0.191-0.636-0.383-1.271-0.575-1.908c-0.185-0.612-0.37-1.224-0.555-1.835c-0.178-0.587-0.355-1.175-0.532-1.763
	c-0.17-0.561-0.339-1.122-0.509-1.684c-0.161-0.535-0.322-1.069-0.483-1.604c-0.153-0.507-0.308-1.014-0.459-1.521
	c-0.146-0.479-0.29-0.958-0.434-1.436c-0.136-0.448-0.271-0.897-0.406-1.346c-0.127-0.418-0.253-0.836-0.38-1.255
	c-0.116-0.387-0.233-0.773-0.349-1.161c-0.109-0.354-0.215-0.708-0.321-1.063c-0.098-0.321-0.195-0.642-0.291-0.963
	c-0.088-0.287-0.173-0.574-0.262-0.86c-0.074-0.252-0.15-0.503-0.227-0.755c-0.065-0.216-0.131-0.431-0.195-0.646
	c-0.055-0.179-0.107-0.357-0.161-0.536C172.299,88.288,172.296,87.916,172.044,87.733z M137.738,182.1l15.657-65.172
	c2.25,9.447,15.813,65.172,15.813,65.172H137.738z"/>
<path fill="#B46720" d="M270.633,101.404c0,9.026-6.77,16.548-17.55,16.548c-10.28,0-17.049-7.522-17.049-16.548
	c0-9.528,7.021-16.799,17.3-16.799C263.863,84.605,270.383,91.876,270.633,101.404z"/>
<rect x="236.599" y="131.406" fill="#B46720" width="33.228" height="121.904"/>
<linearGradient id="SVGID_4_" gradientUnits="userSpaceOnUse" x1="87.4932" y1="170.3438" x2="270.6328" y2="170.3438">
	<stop  offset="0" style="stop-color:#FED642"/>
	<stop  offset="1" style="stop-color:#FED642"/>
</linearGradient>
<path fill="url(#SVGID_4_)" d="M270.633,102.75c0,9.025-6.77,16.547-17.55,16.547c-10.28,0-17.049-7.522-17.049-16.547
	c0-9.528,7.021-16.799,17.3-16.799C263.863,85.951,270.383,93.223,270.633,102.75z M172.044,89.137
	c-0.069-0.051-0.157-0.087-0.272-0.104c-0.273-0.04-0.548,0.009-0.821,0.009c-1.041,0-2.083,0-3.123,0c-1.531,0-3.063,0-4.595,0
	c-1.857,0-3.713,0-5.57,0c-2.016,0-4.032,0-6.047,0c-2.009,0-4.017,0-6.025,0c-1.835,0-3.671,0-5.505,0c-1.497,0-2.993,0-4.489,0
	c-0.545,0-1.088,0-1.632,0c-0.514,0-1.21-0.102-1.694,0.054c-0.202,0.064-0.301,0.181-0.407,0.357
	c-0.284,0.474-0.208,1.107-0.208,1.624c0,0.431,0,0.863,0,1.294c0,1.034,0,2.067,0,3.101c0,2.099,0,4.198,0,6.297
	c0,0.912,0,1.823,0,2.734c0-0.017-0.004-0.041,0-0.056c-0.05,0.168-0.1,0.337-0.151,0.505c-0.146,0.49-0.291,0.979-0.437,1.469
	c-0.234,0.787-0.469,1.575-0.704,2.362c-0.315,1.062-0.632,2.123-0.949,3.185c-0.391,1.313-0.781,2.626-1.172,3.939
	c-0.459,1.541-0.918,3.082-1.376,4.623c-0.52,1.745-1.04,3.49-1.56,5.235c-0.574,1.926-1.147,3.853-1.721,5.779
	c-0.62,2.084-1.24,4.168-1.862,6.253c-0.661,2.219-1.321,4.438-1.982,6.656c-0.694,2.33-1.387,4.66-2.081,6.991
	c-0.72,2.417-1.44,4.835-2.161,7.253c-0.739,2.483-1.479,4.965-2.217,7.447c-0.752,2.523-1.503,5.048-2.255,7.571
	c-0.756,2.542-1.514,5.084-2.271,7.625c-0.755,2.537-1.511,5.072-2.267,7.608c-0.746,2.509-1.493,5.016-2.24,7.523
	c-0.731,2.455-1.462,4.91-2.193,7.367c-0.709,2.379-1.417,4.76-2.127,7.142c-0.679,2.28-1.358,4.562-2.039,6.844
	c-0.643,2.16-1.286,4.319-1.929,6.479c-0.6,2.015-1.199,4.029-1.8,6.043c-0.549,1.847-1.099,3.692-1.648,5.538
	c-0.492,1.653-0.985,3.309-1.477,4.961c-0.429,1.438-0.857,2.878-1.286,4.315c-0.357,1.201-0.715,2.4-1.072,3.601
	c-0.279,0.938-0.559,1.877-0.838,2.815c-0.133,0.445-0.296,0.885-0.314,1.357c-0.012,0.285-0.067,0.655,0.003,0.935
	c0.221,0.887,1.92,0.85,2.813,0.85c1.059,0,2.117,0,3.175,0c2.654,0,5.309,0,7.963,0c2.766,0,5.532,0,8.297,0
	c0.122,0,0.243,0,0.363,0c1.214,0,2.425,0,3.638,0c0.735,0,1.749,0.052,2.471-0.091c3.007-0.601,3.373-3.854,4.12-6.168
	c0.723-2.233,1.234-4.532,1.85-6.8c0.713-2.626,1.428-5.251,2.143-7.876c0.718-2.643,1.437-5.282,2.154-7.924
	c0.63-2.313,1.258-4.625,1.887-6.937c0.447-1.641,0.894-3.279,1.338-4.92c0.17-0.623,0.34-1.246,0.509-1.869h45.628
	c0.176,0.585,0.353,1.17,0.527,1.754c0.465,1.547,0.931,3.092,1.396,4.638c0.66,2.196,1.322,4.394,1.981,6.589
	c0.763,2.535,1.526,5.07,2.288,7.606c0.771,2.563,1.542,5.126,2.314,7.689c0.686,2.28,1.371,4.562,2.058,6.842
	c0.508,1.687,1.016,3.373,1.522,5.06c0.103,0.345,0.238,0.693,0.314,1.045c0.158,0.739,1.017,1.386,1.739,1.361
	c0.333-0.012,0.669,0,1.001,0c0.889,0,1.778,0,2.668,0c2.406,0,4.813,0,7.217,0c2.736,0,5.474,0,8.209,0c2.467,0,4.932,0,7.396,0
	c0.009,0,0.019,0,0.027,0c0.389,0,0.778,0,1.168,0c0.357,0,0.734,0.009,1.092,0.02c0.396,0.012,1.92-0.364,2.282-1.451
	c0.092-0.274,0.217-0.554,0.219-0.845c0.004-0.248,0.004-0.458-0.069-0.695c-0.086-0.289-0.174-0.579-0.263-0.868
	c-0.096-0.323-0.194-0.647-0.292-0.971c-0.108-0.357-0.216-0.714-0.323-1.071c-0.117-0.39-0.234-0.778-0.353-1.167
	c-0.127-0.421-0.255-0.842-0.381-1.263c-0.136-0.45-0.272-0.901-0.409-1.352c-0.145-0.481-0.29-0.962-0.436-1.443
	c-0.153-0.509-0.307-1.017-0.46-1.527c-0.163-0.535-0.325-1.072-0.486-1.608c-0.17-0.564-0.34-1.128-0.511-1.691
	c-0.179-0.589-0.354-1.178-0.533-1.767c-0.186-0.614-0.37-1.228-0.556-1.843c-0.192-0.637-0.387-1.274-0.578-1.914
	c-0.2-0.659-0.398-1.32-0.599-1.98c-0.207-0.683-0.412-1.365-0.619-2.048c-0.212-0.705-0.425-1.407-0.637-2.112
	c-0.219-0.724-0.438-1.447-0.656-2.172c-0.225-0.743-0.448-1.486-0.673-2.228c-0.229-0.763-0.46-1.523-0.69-2.285
	c-0.234-0.778-0.469-1.558-0.704-2.336c-0.241-0.795-0.48-1.591-0.721-2.386c-0.244-0.81-0.489-1.62-0.734-2.43
	c-0.249-0.826-0.498-1.651-0.747-2.476c-0.253-0.839-0.507-1.678-0.76-2.517c-0.257-0.85-0.514-1.701-0.771-2.553
	c-0.261-0.863-0.521-1.726-0.782-2.588c-0.263-0.875-0.526-1.748-0.791-2.622c-0.266-0.884-0.534-1.767-0.8-2.649
	c-0.269-0.893-0.539-1.785-0.809-2.677c-0.271-0.9-0.543-1.8-0.815-2.699c-0.273-0.908-0.547-1.815-0.821-2.723
	c-0.275-0.913-0.552-1.827-0.827-2.74c-0.276-0.917-0.554-1.837-0.832-2.755c-0.278-0.923-0.558-1.846-0.836-2.768
	c-0.279-0.926-0.559-1.852-0.838-2.777c-0.281-0.928-0.561-1.855-0.84-2.783c-0.281-0.931-0.562-1.859-0.843-2.79
	c-0.281-0.929-0.562-1.859-0.843-2.79c-0.28-0.929-0.561-1.857-0.842-2.786c-0.28-0.929-0.561-1.857-0.841-2.785
	c-0.279-0.926-0.559-1.851-0.837-2.776c-0.278-0.922-0.559-1.845-0.837-2.767c-0.275-0.918-0.555-1.836-0.83-2.754
	c-0.276-0.914-0.552-1.826-0.828-2.739c-0.274-0.907-0.548-1.813-0.82-2.72c-0.271-0.9-0.544-1.8-0.815-2.699
	c-0.27-0.892-0.538-1.783-0.808-2.674c-0.267-0.883-0.533-1.766-0.799-2.648c-0.265-0.872-0.527-1.746-0.791-2.618
	c-0.262-0.862-0.521-1.724-0.781-2.585c-0.256-0.851-0.513-1.701-0.77-2.551c-0.253-0.837-0.506-1.675-0.759-2.512
	c-0.249-0.824-0.497-1.647-0.747-2.472c-0.244-0.809-0.487-1.619-0.733-2.428c-0.239-0.794-0.478-1.588-0.718-2.382
	c-0.235-0.776-0.47-1.554-0.704-2.332c-0.229-0.76-0.459-1.52-0.689-2.28c-0.224-0.741-0.446-1.483-0.671-2.225
	c-0.219-0.723-0.437-1.445-0.653-2.167c-0.214-0.702-0.426-1.404-0.637-2.106c-0.207-0.681-0.412-1.362-0.617-2.043
	c-0.2-0.659-0.399-1.318-0.598-1.977c-0.191-0.636-0.383-1.272-0.575-1.908c-0.185-0.612-0.37-1.224-0.555-1.835
	c-0.178-0.588-0.355-1.175-0.532-1.762c-0.17-0.562-0.339-1.124-0.509-1.684c-0.161-0.535-0.322-1.07-0.483-1.604
	c-0.153-0.507-0.308-1.013-0.459-1.52c-0.146-0.479-0.29-0.957-0.434-1.436c-0.136-0.448-0.271-0.897-0.406-1.346
	c-0.127-0.418-0.253-0.837-0.38-1.255c-0.116-0.386-0.233-0.774-0.349-1.16c-0.109-0.354-0.215-0.708-0.321-1.063
	c-0.098-0.321-0.195-0.643-0.291-0.963c-0.088-0.287-0.173-0.574-0.262-0.86c-0.074-0.251-0.15-0.503-0.227-0.755
	c-0.065-0.215-0.131-0.431-0.195-0.646c-0.055-0.179-0.107-0.356-0.161-0.535C172.299,89.692,172.296,89.32,172.044,89.137z
	 M137.738,183.504l15.657-65.171c2.25,9.446,15.813,65.171,15.813,65.171H137.738z M236.599,254.716V132.81h33.228v121.906H236.599z
	"/>
</svg>
